<mxfile host="app.diagrams.net" agent="Mozilla/5.0 (Windows NT 10.0; Win64; x64) AppleWebKit/537.36 (KHTML, like Gecko) Chrome/135.0.0.0 Safari/537.36" version="26.2.9">
  <diagram name="第 1 页" id="eG_hrxlI-mul33pUPAH5">
    <mxGraphModel dx="1428" dy="785" grid="1" gridSize="10" guides="1" tooltips="1" connect="1" arrows="1" fold="1" page="1" pageScale="1" pageWidth="827" pageHeight="1169" math="0" shadow="0">
      <root>
        <mxCell id="0" />
        <mxCell id="1" parent="0" />
        <mxCell id="9TZe-ybHFqW52obptShA-2" value="" style="edgeStyle=orthogonalEdgeStyle;rounded=0;orthogonalLoop=1;jettySize=auto;html=1;" edge="1" parent="1" source="r31toBmwVH4hkpRqbANh-44" target="9TZe-ybHFqW52obptShA-1">
          <mxGeometry relative="1" as="geometry" />
        </mxCell>
        <mxCell id="r31toBmwVH4hkpRqbANh-44" value="开始" style="strokeWidth=2;html=1;shape=mxgraph.flowchart.start_1;whiteSpace=wrap;" parent="1" vertex="1">
          <mxGeometry x="290" y="40" width="70" height="30" as="geometry" />
        </mxCell>
        <mxCell id="9TZe-ybHFqW52obptShA-10" value="" style="edgeStyle=orthogonalEdgeStyle;rounded=0;orthogonalLoop=1;jettySize=auto;html=1;" edge="1" parent="1" source="9TZe-ybHFqW52obptShA-1" target="9TZe-ybHFqW52obptShA-9">
          <mxGeometry relative="1" as="geometry" />
        </mxCell>
        <mxCell id="9TZe-ybHFqW52obptShA-1" value="查询需要新增的到期兑付数据列表" style="whiteSpace=wrap;html=1;strokeWidth=2;" vertex="1" parent="1">
          <mxGeometry x="265" y="135" width="120" height="45" as="geometry" />
        </mxCell>
        <mxCell id="9TZe-ybHFqW52obptShA-3" value="&lt;div&gt;select c.id,c.actual_maturity_date,a.*&amp;nbsp;&lt;/div&gt;&lt;div&gt;from&amp;nbsp; bond_amount a join bond_type b on a.combination_code=b.combination_code&amp;nbsp;&lt;/div&gt;&lt;div&gt;&amp;nbsp;and a.valid_status=1 and b.valid_status=1&lt;/div&gt;&lt;div&gt;join&amp;nbsp; bond_basic c on a.combination_code=c.combination_code&amp;nbsp; and c.valid_status=1&lt;/div&gt;&lt;div&gt;where&amp;nbsp; change_reason=1 and b.type_system=1&amp;nbsp;&lt;/div&gt;&lt;div&gt;and b.bond_type not in(16,17,18,28,29) and c.payment_type=2&lt;/div&gt;&lt;div&gt;and c.actual_maturity_date&amp;gt;curdate()&lt;/div&gt;&lt;div&gt;and a.combination_code not in (select&amp;nbsp; combination_code&amp;nbsp;&lt;/div&gt;&lt;div&gt;&lt;span style=&quot;white-space: normal;&quot;&gt;&lt;span style=&quot;white-space:pre&quot;&gt;&#x9;&lt;/span&gt;from&amp;nbsp; bond_amount&amp;nbsp; &lt;br&gt;where (change_reason=7 or remain_amount=0) and valid_status=1)&lt;/span&gt;&lt;/div&gt;" style="strokeWidth=2;html=1;shape=mxgraph.flowchart.document2;whiteSpace=wrap;size=0.25;" vertex="1" parent="1">
          <mxGeometry x="470" y="20" width="280" height="240" as="geometry" />
        </mxCell>
        <mxCell id="9TZe-ybHFqW52obptShA-8" value="" style="endArrow=classic;html=1;rounded=0;exitX=1.008;exitY=0.617;exitDx=0;exitDy=0;exitPerimeter=0;entryX=-0.011;entryY=0.363;entryDx=0;entryDy=0;entryPerimeter=0;" edge="1" parent="1" source="9TZe-ybHFqW52obptShA-1" target="9TZe-ybHFqW52obptShA-3">
          <mxGeometry width="50" height="50" relative="1" as="geometry">
            <mxPoint x="390" y="290" as="sourcePoint" />
            <mxPoint x="440" y="240" as="targetPoint" />
          </mxGeometry>
        </mxCell>
        <mxCell id="9TZe-ybHFqW52obptShA-12" value="" style="edgeStyle=orthogonalEdgeStyle;rounded=0;orthogonalLoop=1;jettySize=auto;html=1;" edge="1" parent="1" source="9TZe-ybHFqW52obptShA-9" target="9TZe-ybHFqW52obptShA-11">
          <mxGeometry relative="1" as="geometry" />
        </mxCell>
        <mxCell id="9TZe-ybHFqW52obptShA-13" value="有数据" style="edgeLabel;html=1;align=center;verticalAlign=middle;resizable=0;points=[];" vertex="1" connectable="0" parent="9TZe-ybHFqW52obptShA-12">
          <mxGeometry x="-0.0933" relative="1" as="geometry">
            <mxPoint as="offset" />
          </mxGeometry>
        </mxCell>
        <mxCell id="9TZe-ybHFqW52obptShA-29" value="" style="edgeStyle=orthogonalEdgeStyle;rounded=0;orthogonalLoop=1;jettySize=auto;html=1;entryX=0;entryY=0.5;entryDx=0;entryDy=0;entryPerimeter=0;exitX=0;exitY=0.5;exitDx=0;exitDy=0;" edge="1" parent="1" source="9TZe-ybHFqW52obptShA-9" target="9TZe-ybHFqW52obptShA-27">
          <mxGeometry relative="1" as="geometry">
            <mxPoint x="225" y="324" as="targetPoint" />
            <Array as="points">
              <mxPoint x="140" y="324" />
              <mxPoint x="140" y="990" />
            </Array>
          </mxGeometry>
        </mxCell>
        <mxCell id="9TZe-ybHFqW52obptShA-30" value="无数据" style="edgeLabel;html=1;align=center;verticalAlign=middle;resizable=0;points=[];" vertex="1" connectable="0" parent="9TZe-ybHFqW52obptShA-29">
          <mxGeometry x="-0.8286" relative="1" as="geometry">
            <mxPoint as="offset" />
          </mxGeometry>
        </mxCell>
        <mxCell id="9TZe-ybHFqW52obptShA-9" value="获取一条" style="rhombus;whiteSpace=wrap;html=1;strokeWidth=2;" vertex="1" parent="1">
          <mxGeometry x="285" y="299" width="80" height="50" as="geometry" />
        </mxCell>
        <mxCell id="9TZe-ybHFqW52obptShA-15" value="" style="edgeStyle=orthogonalEdgeStyle;rounded=0;orthogonalLoop=1;jettySize=auto;html=1;" edge="1" parent="1" source="9TZe-ybHFqW52obptShA-11" target="9TZe-ybHFqW52obptShA-14">
          <mxGeometry relative="1" as="geometry" />
        </mxCell>
        <mxCell id="9TZe-ybHFqW52obptShA-11" value="&lt;div&gt;根据组合编码查询到期兑付A=select&amp;nbsp; *&lt;/div&gt;&lt;div&gt;from bond_amount where change_reason=7&lt;/div&gt;&lt;div&gt;and combination_code={combinationCode}&lt;/div&gt;" style="whiteSpace=wrap;html=1;strokeWidth=2;" vertex="1" parent="1">
          <mxGeometry x="202.5" y="399" width="245" height="60" as="geometry" />
        </mxCell>
        <mxCell id="9TZe-ybHFqW52obptShA-20" value="" style="edgeStyle=orthogonalEdgeStyle;rounded=0;orthogonalLoop=1;jettySize=auto;html=1;" edge="1" parent="1" source="9TZe-ybHFqW52obptShA-14" target="9TZe-ybHFqW52obptShA-19">
          <mxGeometry relative="1" as="geometry" />
        </mxCell>
        <mxCell id="9TZe-ybHFqW52obptShA-21" value="不存在" style="edgeLabel;html=1;align=center;verticalAlign=middle;resizable=0;points=[];" vertex="1" connectable="0" parent="9TZe-ybHFqW52obptShA-20">
          <mxGeometry x="-0.0333" relative="1" as="geometry">
            <mxPoint as="offset" />
          </mxGeometry>
        </mxCell>
        <mxCell id="9TZe-ybHFqW52obptShA-32" value="" style="edgeStyle=orthogonalEdgeStyle;rounded=0;orthogonalLoop=1;jettySize=auto;html=1;" edge="1" parent="1" source="9TZe-ybHFqW52obptShA-14" target="9TZe-ybHFqW52obptShA-31">
          <mxGeometry relative="1" as="geometry" />
        </mxCell>
        <mxCell id="9TZe-ybHFqW52obptShA-33" value="存在" style="edgeLabel;html=1;align=center;verticalAlign=middle;resizable=0;points=[];" vertex="1" connectable="0" parent="9TZe-ybHFqW52obptShA-32">
          <mxGeometry x="-0.2549" y="3" relative="1" as="geometry">
            <mxPoint as="offset" />
          </mxGeometry>
        </mxCell>
        <mxCell id="9TZe-ybHFqW52obptShA-14" value="是否存在" style="rhombus;whiteSpace=wrap;html=1;strokeWidth=2;" vertex="1" parent="1">
          <mxGeometry x="285" y="501" width="80" height="58" as="geometry" />
        </mxCell>
        <mxCell id="9TZe-ybHFqW52obptShA-23" value="" style="edgeStyle=orthogonalEdgeStyle;rounded=0;orthogonalLoop=1;jettySize=auto;html=1;" edge="1" parent="1" source="9TZe-ybHFqW52obptShA-16" target="9TZe-ybHFqW52obptShA-22">
          <mxGeometry relative="1" as="geometry" />
        </mxCell>
        <mxCell id="9TZe-ybHFqW52obptShA-16" value="把A更新成有效,按照映射逻辑重新赋值" style="whiteSpace=wrap;html=1;strokeWidth=2;" vertex="1" parent="1">
          <mxGeometry x="265" y="710" width="120" height="60" as="geometry" />
        </mxCell>
        <mxCell id="9TZe-ybHFqW52obptShA-24" value="" style="edgeStyle=orthogonalEdgeStyle;rounded=0;orthogonalLoop=1;jettySize=auto;html=1;" edge="1" parent="1" source="9TZe-ybHFqW52obptShA-19" target="9TZe-ybHFqW52obptShA-22">
          <mxGeometry relative="1" as="geometry" />
        </mxCell>
        <mxCell id="9TZe-ybHFqW52obptShA-19" value="新增一条到期兑付,按照映射逻辑赋值" style="whiteSpace=wrap;html=1;strokeWidth=2;" vertex="1" parent="1">
          <mxGeometry x="425" y="500" width="120" height="60" as="geometry" />
        </mxCell>
        <mxCell id="9TZe-ybHFqW52obptShA-37" value="" style="edgeStyle=orthogonalEdgeStyle;rounded=0;orthogonalLoop=1;jettySize=auto;html=1;" edge="1" parent="1" source="9TZe-ybHFqW52obptShA-22" target="9TZe-ybHFqW52obptShA-36">
          <mxGeometry relative="1" as="geometry" />
        </mxCell>
        <mxCell id="9TZe-ybHFqW52obptShA-22" value="保存bond_amount" style="whiteSpace=wrap;html=1;strokeWidth=2;" vertex="1" parent="1">
          <mxGeometry x="425" y="710" width="120" height="60" as="geometry" />
        </mxCell>
        <mxCell id="9TZe-ybHFqW52obptShA-26" value="" style="endArrow=classic;html=1;rounded=0;entryX=1;entryY=0.5;entryDx=0;entryDy=0;exitX=1;exitY=0.5;exitDx=0;exitDy=0;" edge="1" parent="1" source="9TZe-ybHFqW52obptShA-36" target="9TZe-ybHFqW52obptShA-9">
          <mxGeometry width="50" height="50" relative="1" as="geometry">
            <mxPoint x="545" y="639" as="sourcePoint" />
            <mxPoint x="630" y="619" as="targetPoint" />
            <Array as="points">
              <mxPoint x="630" y="850" />
              <mxPoint x="640" y="329" />
            </Array>
          </mxGeometry>
        </mxCell>
        <mxCell id="9TZe-ybHFqW52obptShA-27" value="结束" style="strokeWidth=2;html=1;shape=mxgraph.flowchart.terminator;whiteSpace=wrap;" vertex="1" parent="1">
          <mxGeometry x="275" y="960" width="100" height="60" as="geometry" />
        </mxCell>
        <mxCell id="9TZe-ybHFqW52obptShA-34" value="" style="edgeStyle=orthogonalEdgeStyle;rounded=0;orthogonalLoop=1;jettySize=auto;html=1;" edge="1" parent="1" source="9TZe-ybHFqW52obptShA-31" target="9TZe-ybHFqW52obptShA-16">
          <mxGeometry relative="1" as="geometry" />
        </mxCell>
        <mxCell id="9TZe-ybHFqW52obptShA-35" value="Y" style="edgeLabel;html=1;align=center;verticalAlign=middle;resizable=0;points=[];" vertex="1" connectable="0" parent="9TZe-ybHFqW52obptShA-34">
          <mxGeometry x="-0.1154" y="2" relative="1" as="geometry">
            <mxPoint as="offset" />
          </mxGeometry>
        </mxCell>
        <mxCell id="9TZe-ybHFqW52obptShA-39" value="" style="edgeStyle=orthogonalEdgeStyle;rounded=0;orthogonalLoop=1;jettySize=auto;html=1;entryX=0;entryY=0.5;entryDx=0;entryDy=0;exitX=0;exitY=0.5;exitDx=0;exitDy=0;" edge="1" parent="1" source="9TZe-ybHFqW52obptShA-31" target="9TZe-ybHFqW52obptShA-36">
          <mxGeometry relative="1" as="geometry">
            <mxPoint x="210" y="629" as="targetPoint" />
            <Array as="points">
              <mxPoint x="220" y="629" />
              <mxPoint x="220" y="850" />
            </Array>
          </mxGeometry>
        </mxCell>
        <mxCell id="9TZe-ybHFqW52obptShA-40" value="N" style="edgeLabel;html=1;align=center;verticalAlign=middle;resizable=0;points=[];" vertex="1" connectable="0" parent="9TZe-ybHFqW52obptShA-39">
          <mxGeometry x="-0.2699" relative="1" as="geometry">
            <mxPoint as="offset" />
          </mxGeometry>
        </mxCell>
        <mxCell id="9TZe-ybHFqW52obptShA-31" value="updateBy=255" style="rhombus;whiteSpace=wrap;html=1;strokeWidth=2;" vertex="1" parent="1">
          <mxGeometry x="277.5" y="600" width="95" height="58" as="geometry" />
        </mxCell>
        <mxCell id="9TZe-ybHFqW52obptShA-36" value="空操作" style="whiteSpace=wrap;html=1;strokeWidth=2;" vertex="1" parent="1">
          <mxGeometry x="425" y="820" width="120" height="60" as="geometry" />
        </mxCell>
      </root>
    </mxGraphModel>
  </diagram>
</mxfile>
